<?xml version="1.0" standalone="no"?>
<!DOCTYPE svg PUBLIC "-//W3C//DTD SVG 20010904//EN"
 "http://www.w3.org/TR/2001/REC-SVG-20010904/DTD/svg10.dtd">
<svg version="1.0" xmlns="http://www.w3.org/2000/svg"
 width="512.000000pt" height="512.000000pt" viewBox="0 0 512.000000 512.000000"
 preserveAspectRatio="xMidYMid meet">

<g transform="translate(0.000000,512.000000) scale(0.100000,-0.100000)"
fill="#000000" stroke="none">
<path d="M2388 4989 c-557 -38 -1090 -274 -1512 -669 -173 -162 -370 -427
-483 -650 -277 -545 -340 -1152 -182 -1750 122 -461 393 -890 764 -1208 613
-526 1433 -710 2225 -501 461 122 890 393 1208 764 526 613 710 1433 501 2225
-122 461 -393 890 -764 1208 -402 345 -896 545 -1435 582 -158 11 -153 11
-322 -1z m949 -1044 c60 -25 102 -63 130 -118 26 -51 27 -57 31 -269 l4 -218
48 0 c96 0 180 -49 225 -132 27 -49 30 -63 33 -173 3 -69 -1 -141 -7 -171 -15
-67 -58 -125 -116 -159 l-45 -27 20 -28 c44 -62 50 -101 50 -331 l0 -219 34
-14 c64 -27 68 -44 64 -349 -3 -257 -4 -274 -25 -312 -25 -47 -74 -95 -123
-121 -33 -18 -79 -19 -1050 -19 l-1015 0 -60 24 c-84 34 -192 142 -226 226
l-24 60 -3 990 c-2 714 0 1007 8 1050 28 141 127 256 263 306 49 17 99 18 900
19 739 0 852 -2 884 -15z"/>
<path d="M1618 3766 c-56 -20 -85 -42 -115 -87 -35 -53 -43 -140 -18 -204 19
-52 82 -111 134 -125 23 -6 348 -10 864 -10 l827 0 0 200 c0 187 -1 201 -20
220 -20 20 -33 20 -827 20 -648 -1 -815 -4 -845 -14z"/>
<path d="M3502 3013 l3 -138 27 -13 c29 -13 63 -4 80 22 4 6 8 61 8 123 0 131
-6 143 -76 143 l-45 0 3 -137z"/>
<path d="M2365 2905 c-341 -74 -566 -380 -501 -683 24 -115 69 -195 161 -288
88 -89 168 -136 295 -176 82 -25 154 -27 590 -18 113 3 222 1 243 -3 l38 -8
-8 38 c-10 49 -10 286 1 473 10 171 2 226 -51 332 -56 112 -162 213 -283 271
-52 25 -127 52 -167 61 -86 19 -234 20 -318 1z"/>
</g>
</svg>
